<mxfile host="app.diagrams.net" modified="2024-04-24T13:44:16.401Z" agent="Mozilla/5.0 (Windows NT 10.0; Win64; x64) AppleWebKit/537.36 (KHTML, like Gecko) Chrome/124.0.0.0 Safari/537.36" etag="2JSvueLulKfv52AtwgAk" version="24.2.5" type="github">
  <diagram id="C5RBs43oDa-KdzZeNtuy" name="Page-1">
    <mxGraphModel dx="1221" dy="670" grid="1" gridSize="10" guides="1" tooltips="1" connect="1" arrows="1" fold="1" page="1" pageScale="1" pageWidth="827" pageHeight="1169" math="0" shadow="0">
      <root>
        <mxCell id="WIyWlLk6GJQsqaUBKTNV-0" />
        <mxCell id="WIyWlLk6GJQsqaUBKTNV-1" parent="WIyWlLk6GJQsqaUBKTNV-0" />
        <mxCell id="OGRZikfi58X2_mj7uKMp-0" style="edgeStyle=orthogonalEdgeStyle;rounded=0;orthogonalLoop=1;jettySize=auto;html=1;exitX=0.5;exitY=1;exitDx=0;exitDy=0;exitPerimeter=0;entryX=0.5;entryY=0;entryDx=0;entryDy=0;" edge="1" parent="WIyWlLk6GJQsqaUBKTNV-1" source="OGRZikfi58X2_mj7uKMp-1">
          <mxGeometry relative="1" as="geometry">
            <mxPoint x="728.49" y="120" as="targetPoint" />
          </mxGeometry>
        </mxCell>
        <mxCell id="OGRZikfi58X2_mj7uKMp-1" value="开始" style="strokeWidth=2;html=1;shape=mxgraph.flowchart.terminator;whiteSpace=wrap;" vertex="1" parent="WIyWlLk6GJQsqaUBKTNV-1">
          <mxGeometry x="690.99" y="60" width="75" height="40" as="geometry" />
        </mxCell>
        <mxCell id="OGRZikfi58X2_mj7uKMp-2" style="edgeStyle=orthogonalEdgeStyle;rounded=0;orthogonalLoop=1;jettySize=auto;html=1;" edge="1" parent="WIyWlLk6GJQsqaUBKTNV-1" target="OGRZikfi58X2_mj7uKMp-3">
          <mxGeometry relative="1" as="geometry">
            <mxPoint x="728.49" y="150" as="sourcePoint" />
          </mxGeometry>
        </mxCell>
        <mxCell id="OGRZikfi58X2_mj7uKMp-3" value="输入邮箱" style="shape=parallelogram;html=1;strokeWidth=2;perimeter=parallelogramPerimeter;whiteSpace=wrap;rounded=1;arcSize=12;size=0.23;" vertex="1" parent="WIyWlLk6GJQsqaUBKTNV-1">
          <mxGeometry x="674.99" y="180" width="107" height="30" as="geometry" />
        </mxCell>
        <mxCell id="OGRZikfi58X2_mj7uKMp-4" style="edgeStyle=orthogonalEdgeStyle;rounded=0;orthogonalLoop=1;jettySize=auto;html=1;entryX=0.5;entryY=0;entryDx=0;entryDy=0;entryPerimeter=0;" edge="1" parent="WIyWlLk6GJQsqaUBKTNV-1" source="OGRZikfi58X2_mj7uKMp-8">
          <mxGeometry relative="1" as="geometry">
            <mxPoint x="728.4950000000001" y="320" as="targetPoint" />
          </mxGeometry>
        </mxCell>
        <mxCell id="OGRZikfi58X2_mj7uKMp-5" value="Y" style="edgeLabel;html=1;align=center;verticalAlign=middle;resizable=0;points=[];" vertex="1" connectable="0" parent="OGRZikfi58X2_mj7uKMp-4">
          <mxGeometry x="-0.4222" relative="1" as="geometry">
            <mxPoint as="offset" />
          </mxGeometry>
        </mxCell>
        <mxCell id="OGRZikfi58X2_mj7uKMp-6" style="edgeStyle=orthogonalEdgeStyle;rounded=0;orthogonalLoop=1;jettySize=auto;html=1;exitX=1;exitY=0.5;exitDx=0;exitDy=0;exitPerimeter=0;entryX=0.5;entryY=1;entryDx=0;entryDy=0;" edge="1" parent="WIyWlLk6GJQsqaUBKTNV-1" source="OGRZikfi58X2_mj7uKMp-8" target="OGRZikfi58X2_mj7uKMp-15">
          <mxGeometry relative="1" as="geometry" />
        </mxCell>
        <mxCell id="OGRZikfi58X2_mj7uKMp-7" value="N" style="edgeLabel;html=1;align=center;verticalAlign=middle;resizable=0;points=[];" vertex="1" connectable="0" parent="OGRZikfi58X2_mj7uKMp-6">
          <mxGeometry x="-0.2978" y="-5" relative="1" as="geometry">
            <mxPoint y="-5" as="offset" />
          </mxGeometry>
        </mxCell>
        <mxCell id="OGRZikfi58X2_mj7uKMp-8" value="邮箱是否有效" style="strokeWidth=2;html=1;shape=mxgraph.flowchart.decision;whiteSpace=wrap;" vertex="1" parent="WIyWlLk6GJQsqaUBKTNV-1">
          <mxGeometry x="670.12" y="240" width="116.75" height="40" as="geometry" />
        </mxCell>
        <mxCell id="OGRZikfi58X2_mj7uKMp-9" style="edgeStyle=orthogonalEdgeStyle;rounded=0;orthogonalLoop=1;jettySize=auto;html=1;entryX=0.5;entryY=0;entryDx=0;entryDy=0;entryPerimeter=0;" edge="1" parent="WIyWlLk6GJQsqaUBKTNV-1" source="OGRZikfi58X2_mj7uKMp-3" target="OGRZikfi58X2_mj7uKMp-8">
          <mxGeometry relative="1" as="geometry" />
        </mxCell>
        <mxCell id="OGRZikfi58X2_mj7uKMp-10" style="edgeStyle=orthogonalEdgeStyle;rounded=0;orthogonalLoop=1;jettySize=auto;html=1;exitX=0.5;exitY=1;exitDx=0;exitDy=0;" edge="1" parent="WIyWlLk6GJQsqaUBKTNV-1" source="OGRZikfi58X2_mj7uKMp-18" target="OGRZikfi58X2_mj7uKMp-13">
          <mxGeometry relative="1" as="geometry">
            <mxPoint x="728.4950000000001" y="360" as="sourcePoint" />
          </mxGeometry>
        </mxCell>
        <mxCell id="OGRZikfi58X2_mj7uKMp-11" value="Y" style="edgeLabel;html=1;align=center;verticalAlign=middle;resizable=0;points=[];" vertex="1" connectable="0" parent="OGRZikfi58X2_mj7uKMp-10">
          <mxGeometry x="0.28" y="-1" relative="1" as="geometry">
            <mxPoint x="1" y="-6" as="offset" />
          </mxGeometry>
        </mxCell>
        <mxCell id="OGRZikfi58X2_mj7uKMp-12" style="edgeStyle=orthogonalEdgeStyle;rounded=0;orthogonalLoop=1;jettySize=auto;html=1;exitX=0.5;exitY=1;exitDx=0;exitDy=0;" edge="1" parent="WIyWlLk6GJQsqaUBKTNV-1" source="OGRZikfi58X2_mj7uKMp-13" target="OGRZikfi58X2_mj7uKMp-16">
          <mxGeometry relative="1" as="geometry" />
        </mxCell>
        <mxCell id="OGRZikfi58X2_mj7uKMp-13" value="保存评论" style="rounded=0;whiteSpace=wrap;html=1;" vertex="1" parent="WIyWlLk6GJQsqaUBKTNV-1">
          <mxGeometry x="660" y="390" width="137" height="30" as="geometry" />
        </mxCell>
        <mxCell id="OGRZikfi58X2_mj7uKMp-14" style="edgeStyle=orthogonalEdgeStyle;rounded=0;orthogonalLoop=1;jettySize=auto;html=1;entryX=1;entryY=0.5;entryDx=0;entryDy=0;" edge="1" parent="WIyWlLk6GJQsqaUBKTNV-1" source="OGRZikfi58X2_mj7uKMp-15" target="OGRZikfi58X2_mj7uKMp-3">
          <mxGeometry relative="1" as="geometry">
            <Array as="points">
              <mxPoint x="878.99" y="195" />
            </Array>
          </mxGeometry>
        </mxCell>
        <mxCell id="OGRZikfi58X2_mj7uKMp-15" value="提示标签已存在" style="rounded=0;whiteSpace=wrap;html=1;" vertex="1" parent="WIyWlLk6GJQsqaUBKTNV-1">
          <mxGeometry x="869.99" y="180" width="137" height="30" as="geometry" />
        </mxCell>
        <mxCell id="OGRZikfi58X2_mj7uKMp-16" value="结束" style="strokeWidth=2;html=1;shape=mxgraph.flowchart.terminator;whiteSpace=wrap;" vertex="1" parent="WIyWlLk6GJQsqaUBKTNV-1">
          <mxGeometry x="691" y="454" width="75" height="40" as="geometry" />
        </mxCell>
        <mxCell id="OGRZikfi58X2_mj7uKMp-17" value="选择文章" style="shape=parallelogram;html=1;strokeWidth=2;perimeter=parallelogramPerimeter;whiteSpace=wrap;rounded=1;arcSize=12;size=0.23;" vertex="1" parent="WIyWlLk6GJQsqaUBKTNV-1">
          <mxGeometry x="674.99" y="120" width="107" height="30" as="geometry" />
        </mxCell>
        <mxCell id="OGRZikfi58X2_mj7uKMp-18" value="输入评论内容" style="shape=parallelogram;html=1;strokeWidth=2;perimeter=parallelogramPerimeter;whiteSpace=wrap;rounded=1;arcSize=12;size=0.23;" vertex="1" parent="WIyWlLk6GJQsqaUBKTNV-1">
          <mxGeometry x="674.99" y="320" width="107" height="30" as="geometry" />
        </mxCell>
        <mxCell id="OGRZikfi58X2_mj7uKMp-29" style="edgeStyle=orthogonalEdgeStyle;rounded=0;orthogonalLoop=1;jettySize=auto;html=1;exitX=0.5;exitY=1;exitDx=0;exitDy=0;exitPerimeter=0;" edge="1" parent="WIyWlLk6GJQsqaUBKTNV-1" source="OGRZikfi58X2_mj7uKMp-19" target="OGRZikfi58X2_mj7uKMp-21">
          <mxGeometry relative="1" as="geometry" />
        </mxCell>
        <mxCell id="OGRZikfi58X2_mj7uKMp-19" value="开始" style="strokeWidth=2;html=1;shape=mxgraph.flowchart.terminator;whiteSpace=wrap;" vertex="1" parent="WIyWlLk6GJQsqaUBKTNV-1">
          <mxGeometry x="339" y="30" width="75" height="40" as="geometry" />
        </mxCell>
        <mxCell id="OGRZikfi58X2_mj7uKMp-30" style="edgeStyle=orthogonalEdgeStyle;rounded=0;orthogonalLoop=1;jettySize=auto;html=1;exitX=0.5;exitY=1;exitDx=0;exitDy=0;" edge="1" parent="WIyWlLk6GJQsqaUBKTNV-1" source="OGRZikfi58X2_mj7uKMp-21" target="OGRZikfi58X2_mj7uKMp-22">
          <mxGeometry relative="1" as="geometry" />
        </mxCell>
        <mxCell id="OGRZikfi58X2_mj7uKMp-21" value="选择博客" style="rounded=0;whiteSpace=wrap;html=1;" vertex="1" parent="WIyWlLk6GJQsqaUBKTNV-1">
          <mxGeometry x="308" y="90" width="137" height="30" as="geometry" />
        </mxCell>
        <mxCell id="OGRZikfi58X2_mj7uKMp-31" style="edgeStyle=orthogonalEdgeStyle;rounded=0;orthogonalLoop=1;jettySize=auto;html=1;exitX=0.5;exitY=1;exitDx=0;exitDy=0;" edge="1" parent="WIyWlLk6GJQsqaUBKTNV-1" source="OGRZikfi58X2_mj7uKMp-22" target="OGRZikfi58X2_mj7uKMp-24">
          <mxGeometry relative="1" as="geometry" />
        </mxCell>
        <mxCell id="OGRZikfi58X2_mj7uKMp-22" value="点击点赞按钮" style="rounded=0;whiteSpace=wrap;html=1;" vertex="1" parent="WIyWlLk6GJQsqaUBKTNV-1">
          <mxGeometry x="308" y="140" width="137" height="30" as="geometry" />
        </mxCell>
        <mxCell id="OGRZikfi58X2_mj7uKMp-32" style="edgeStyle=orthogonalEdgeStyle;rounded=0;orthogonalLoop=1;jettySize=auto;html=1;exitX=0.5;exitY=1;exitDx=0;exitDy=0;exitPerimeter=0;entryX=0.5;entryY=0;entryDx=0;entryDy=0;" edge="1" parent="WIyWlLk6GJQsqaUBKTNV-1" source="OGRZikfi58X2_mj7uKMp-24" target="OGRZikfi58X2_mj7uKMp-25">
          <mxGeometry relative="1" as="geometry" />
        </mxCell>
        <mxCell id="OGRZikfi58X2_mj7uKMp-40" value="N" style="edgeLabel;html=1;align=center;verticalAlign=middle;resizable=0;points=[];" vertex="1" connectable="0" parent="OGRZikfi58X2_mj7uKMp-32">
          <mxGeometry x="-0.1778" y="1" relative="1" as="geometry">
            <mxPoint as="offset" />
          </mxGeometry>
        </mxCell>
        <mxCell id="OGRZikfi58X2_mj7uKMp-34" style="edgeStyle=orthogonalEdgeStyle;rounded=0;orthogonalLoop=1;jettySize=auto;html=1;exitX=1;exitY=0.5;exitDx=0;exitDy=0;exitPerimeter=0;" edge="1" parent="WIyWlLk6GJQsqaUBKTNV-1" source="OGRZikfi58X2_mj7uKMp-24" target="OGRZikfi58X2_mj7uKMp-27">
          <mxGeometry relative="1" as="geometry" />
        </mxCell>
        <mxCell id="OGRZikfi58X2_mj7uKMp-39" value="Y" style="edgeLabel;html=1;align=center;verticalAlign=middle;resizable=0;points=[];" vertex="1" connectable="0" parent="OGRZikfi58X2_mj7uKMp-34">
          <mxGeometry x="-0.0463" y="4" relative="1" as="geometry">
            <mxPoint y="4" as="offset" />
          </mxGeometry>
        </mxCell>
        <mxCell id="OGRZikfi58X2_mj7uKMp-24" value="是否点过赞?" style="strokeWidth=2;html=1;shape=mxgraph.flowchart.decision;whiteSpace=wrap;" vertex="1" parent="WIyWlLk6GJQsqaUBKTNV-1">
          <mxGeometry x="318.13" y="190" width="116.75" height="40" as="geometry" />
        </mxCell>
        <mxCell id="OGRZikfi58X2_mj7uKMp-33" style="edgeStyle=orthogonalEdgeStyle;rounded=0;orthogonalLoop=1;jettySize=auto;html=1;exitX=0.5;exitY=1;exitDx=0;exitDy=0;" edge="1" parent="WIyWlLk6GJQsqaUBKTNV-1" source="OGRZikfi58X2_mj7uKMp-25" target="OGRZikfi58X2_mj7uKMp-26">
          <mxGeometry relative="1" as="geometry" />
        </mxCell>
        <mxCell id="OGRZikfi58X2_mj7uKMp-25" value="点赞数加一" style="rounded=0;whiteSpace=wrap;html=1;" vertex="1" parent="WIyWlLk6GJQsqaUBKTNV-1">
          <mxGeometry x="308" y="260" width="137" height="30" as="geometry" />
        </mxCell>
        <mxCell id="OGRZikfi58X2_mj7uKMp-26" value="保存用户点赞信息" style="rounded=0;whiteSpace=wrap;html=1;" vertex="1" parent="WIyWlLk6GJQsqaUBKTNV-1">
          <mxGeometry x="308" y="310" width="137" height="30" as="geometry" />
        </mxCell>
        <mxCell id="OGRZikfi58X2_mj7uKMp-35" style="edgeStyle=orthogonalEdgeStyle;rounded=0;orthogonalLoop=1;jettySize=auto;html=1;exitX=0.5;exitY=1;exitDx=0;exitDy=0;entryX=0.5;entryY=0;entryDx=0;entryDy=0;" edge="1" parent="WIyWlLk6GJQsqaUBKTNV-1" source="OGRZikfi58X2_mj7uKMp-27" target="OGRZikfi58X2_mj7uKMp-28">
          <mxGeometry relative="1" as="geometry" />
        </mxCell>
        <mxCell id="OGRZikfi58X2_mj7uKMp-27" value="点赞数减一" style="rounded=0;whiteSpace=wrap;html=1;" vertex="1" parent="WIyWlLk6GJQsqaUBKTNV-1">
          <mxGeometry x="490" y="260" width="137" height="30" as="geometry" />
        </mxCell>
        <mxCell id="OGRZikfi58X2_mj7uKMp-28" value="删除用户点赞信息" style="rounded=0;whiteSpace=wrap;html=1;" vertex="1" parent="WIyWlLk6GJQsqaUBKTNV-1">
          <mxGeometry x="490" y="310" width="137" height="30" as="geometry" />
        </mxCell>
        <mxCell id="OGRZikfi58X2_mj7uKMp-36" value="结束" style="strokeWidth=2;html=1;shape=mxgraph.flowchart.terminator;whiteSpace=wrap;" vertex="1" parent="WIyWlLk6GJQsqaUBKTNV-1">
          <mxGeometry x="339" y="380" width="75" height="40" as="geometry" />
        </mxCell>
        <mxCell id="OGRZikfi58X2_mj7uKMp-37" style="edgeStyle=orthogonalEdgeStyle;rounded=0;orthogonalLoop=1;jettySize=auto;html=1;exitX=0.5;exitY=1;exitDx=0;exitDy=0;entryX=0.5;entryY=0;entryDx=0;entryDy=0;entryPerimeter=0;" edge="1" parent="WIyWlLk6GJQsqaUBKTNV-1" source="OGRZikfi58X2_mj7uKMp-26" target="OGRZikfi58X2_mj7uKMp-36">
          <mxGeometry relative="1" as="geometry" />
        </mxCell>
        <mxCell id="OGRZikfi58X2_mj7uKMp-38" style="edgeStyle=orthogonalEdgeStyle;rounded=0;orthogonalLoop=1;jettySize=auto;html=1;exitX=0.5;exitY=1;exitDx=0;exitDy=0;entryX=1;entryY=0.5;entryDx=0;entryDy=0;entryPerimeter=0;" edge="1" parent="WIyWlLk6GJQsqaUBKTNV-1" source="OGRZikfi58X2_mj7uKMp-28" target="OGRZikfi58X2_mj7uKMp-36">
          <mxGeometry relative="1" as="geometry" />
        </mxCell>
      </root>
    </mxGraphModel>
  </diagram>
</mxfile>
